<?xml version="1.0" encoding="UTF-8" standalone="no"?>
<svg
   height="114.45204"
   width="221.45204"
   version="1.1"
   id="svg278"
   sodipodi:docname="kyrasi flag with outline4.svg"
   inkscape:version="1.2.2 (b0a8486541, 2022-12-01)"
   xml:space="preserve"
   xmlns:inkscape="http://www.inkscape.org/namespaces/inkscape"
   xmlns:sodipodi="http://sodipodi.sourceforge.net/DTD/sodipodi-0.dtd"
   xmlns="http://www.w3.org/2000/svg"
   xmlns:svg="http://www.w3.org/2000/svg"><sodipodi:namedview
     id="namedview199"
     pagecolor="#ffffff"
     bordercolor="#000000"
     borderopacity="0.25"
     inkscape:showpageshadow="2"
     inkscape:pageopacity="0.0"
     inkscape:pagecheckerboard="0"
     inkscape:deskcolor="#d1d1d1"
     showgrid="false"
     inkscape:zoom="3.0617475"
     inkscape:cx="56.993597"
     inkscape:cy="65.158868"
     inkscape:window-width="1241"
     inkscape:window-height="660"
     inkscape:window-x="0"
     inkscape:window-y="0"
     inkscape:window-maximized="1"
     inkscape:current-layer="svg278" /><defs
     id="defs282"><inkscape:path-effect
       effect="powerstroke"
       id="path-effect7161"
       is_visible="true"
       lpeversion="1"
       offset_points="0,4.9921382"
       not_jump="false"
       sort_points="true"
       interpolator_type="CubicBezierJohan"
       interpolator_beta="0.2"
       start_linecap_type="zerowidth"
       linejoin_type="extrp_arc"
       miter_limit="4"
       scale_width="1"
       end_linecap_type="zerowidth" /><inkscape:path-effect
       effect="spiro"
       id="path-effect7159"
       is_visible="true"
       lpeversion="1" /><inkscape:path-effect
       effect="powerstroke"
       id="path-effect7155"
       is_visible="true"
       lpeversion="1"
       offset_points="0,4.9921382"
       not_jump="false"
       sort_points="true"
       interpolator_type="CubicBezierJohan"
       interpolator_beta="0.2"
       start_linecap_type="zerowidth"
       linejoin_type="extrp_arc"
       miter_limit="4"
       scale_width="1"
       end_linecap_type="zerowidth" /><inkscape:path-effect
       effect="spiro"
       id="path-effect7153"
       is_visible="true"
       lpeversion="1" /><inkscape:path-effect
       effect="powerstroke"
       id="path-effect7149"
       is_visible="true"
       lpeversion="1"
       offset_points="0,4.9921382"
       not_jump="false"
       sort_points="true"
       interpolator_type="CubicBezierJohan"
       interpolator_beta="0.2"
       start_linecap_type="zerowidth"
       linejoin_type="extrp_arc"
       miter_limit="4"
       scale_width="1"
       end_linecap_type="zerowidth" /><inkscape:path-effect
       effect="spiro"
       id="path-effect7147"
       is_visible="true"
       lpeversion="1" /><inkscape:path-effect
       effect="powerstroke"
       id="path-effect2007"
       is_visible="true"
       lpeversion="1"
       offset_points="0,4.9921382"
       not_jump="false"
       sort_points="true"
       interpolator_type="CubicBezierJohan"
       interpolator_beta="0.2"
       start_linecap_type="zerowidth"
       linejoin_type="extrp_arc"
       miter_limit="4"
       scale_width="1"
       end_linecap_type="zerowidth" /><inkscape:path-effect
       effect="spiro"
       id="path-effect2005"
       is_visible="true"
       lpeversion="1" /><inkscape:path-effect
       effect="spiro"
       id="path-effect1441"
       is_visible="true"
       lpeversion="1" /><inkscape:path-effect
       effect="spiro"
       id="path-effect1437"
       is_visible="true"
       lpeversion="1" /><inkscape:path-effect
       effect="spiro"
       id="path-effect1379"
       is_visible="true"
       lpeversion="1" /></defs><clipPath
     id="a"><path
       d="m 0,200 v 100 h 600 v -94.4 c 0,-0.2 -0.1,-0.4 -0.1,-0.6 -0.1,-0.9 0,-1.8 0.1,-2.7 V 200 Z"
       id="path248" /></clipPath><clipPath
     id="b"><path
       d="m -8.2,150.1 c -0.1,0.1 -0.1,0.1 -0.2,0.2 v 0.1 c -0.1,0.2 -0.1,0.4 -0.2,0.6 -0.1,0.3 -0.2,0.7 -0.3,1 -0.1,1.7 -0.2,3.4 -0.4,5.1 v 0.7 c 0.2,-1.4 0.4,-2.9 0.6,-4.3 0.1,-1 0.3,-1.9 1.3,-0.8 0,-0.8 0.1,-1.6 0.2,-2.4 z m 3.9,0 v 0.2 0.9 0.9 0.7 0.5 0.5 0.5 0.5 0.5 0.4 0.5 0.5 c 0,0.2 0,0.5 0.1,0.7 v 0.8 0.7 0.5 0.6 0.5 0.5 0.6 0.5 c 0,0.2 0,0.4 0.1,0.5 0,0.3 0.1,0.6 0,0.9 v 0.7 0.7 0.9 c 0,0.3 0,0.5 -0.1,0.8 0,0.3 -0.1,0.6 -0.1,0.8 v 0.5 0.5 0.5 0.6 0.5 0.4 0.3 c 0,0.2 0.1,0.3 0.1,0.5 0,0.2 0.1,0.4 0.1,0.5 v 0.5 0.5 0.6 c 0,0.2 -0.1,0.3 -0.1,0.5 v 0.8 c 0,0.3 0,0.5 -0.1,0.8 -0.2,1.1 -1.1,1.2 -1.4,0.6 0,0 -0.1,0 -0.2,0.1 -0.3,0 -0.6,-0.1 -0.8,-0.2 v 0.2 c 0,0.1 -0.1,0.2 -0.1,0.3 -0.3,0.6 -0.7,1 -1.3,1.3 -0.3,0.2 -0.7,0.3 -1.1,0.3 -0.1,0 -0.2,0 -0.3,0 -0.2,0 -0.4,-0.1 -0.5,-0.2 -0.5,-0.3 -1,-0.6 -1.5,-1 -0.1,-0.1 -0.2,-0.2 -0.3,-0.3 -0.1,-0.2 -0.2,-0.3 -0.3,-0.5 -0.1,-0.1 -0.2,-0.3 -0.2,-0.4 v 0.2 c -0.7,3.5 -1.3,7.1 -1.8,10.6 h 610.7 c -0.2,-1.9 -0.2,-3.8 0.1,-5.7 0.1,-1.2 0.3,-2.5 0.4,-3.5 0,-0.2 -0.1,-0.5 -0.1,-0.8 -0.3,-1.5 -0.5,-2.9 -0.6,-4.4 0,-0.4 0,-0.7 0,-1.1 -0.1,-0.6 -0.3,-1.2 -0.4,-1.8 -0.1,-1.3 0.1,-2.6 0.2,-3.8 0.1,-0.8 0.1,-1.5 0.1,-2.3 0,-0.9 0,-1.7 0,-2.6 0,-0.9 0,-1.8 0,-2.7 0,-1.1 0,-2.1 0,-3.2 0,-1 0,-2 0,-3 v -0.9 z m 644.3,0 c 0.1,0.2 0.1,0.4 0.2,0.6 0.1,0 0.1,0 0.2,0.1 v -0.7 z m 0,22.6 c 0.2,3.3 -0.4,6.7 -0.9,10 -0.2,1.1 -0.4,2.1 -0.5,3.2 h 1.9 v -13 c -0.2,-0.1 -0.3,-0.1 -0.5,-0.2 z m -646.2,1.1 c 0,0 0.1,0.1 0.1,0.1 0,0 0,0 0,-0.1 z m -3.4,0.9 c -0.1,0.1 -0.1,0.2 -0.2,0.3 v 0.1 0.2 c -0.1,0 -0.2,0 -0.4,0 -0.1,0 -0.2,0 -0.3,0 -0.1,0 0.1,0.1 0.1,0.1 0.3,0.3 0.7,0.5 1.1,0.7 0,-0.5 -0.1,-0.9 -0.2,-1.3 z m 618.8,0.2 c 0,0.7 -0.1,1.3 -0.3,1.9 v 1.6 3.9 3.5 c 0.1,0.1 0.2,0.2 0.2,0.2 h 3.4 c 0,-0.1 0,-0.2 0,-0.3 V 177 c -0.1,0 -0.1,0 -0.2,-0.1 -1.4,-0.7 -2.4,-1.4 -3.1,-2.1 z m 15.1,7 v 3.9 0.3 h 0.4 c -0.1,-1.4 -0.1,-2.7 -0.1,-4.1 -0.1,0 -0.2,0 -0.3,-0.1 z"
       id="path251" /></clipPath><rect
     style="display:inline;fill:none;stroke:#ffffff;stroke-width:3.75;stroke-dasharray:none;stroke-opacity:1"
     id="rect307"
     width="217.70204"
     height="110.70204"
     x="1.875"
     y="1.875" /><g
     id="g15763"
     transform="matrix(0.12738095,0,0,0.12738095,3.7260236,3.7260248)"
     style="display:inline"><g
       inkscape:label="Bicolour"
       id="layer1"><rect
         style="fill:#00993d;fill-opacity:1;stroke-width:22.4157;paint-order:stroke fill markers"
         id="rect679-3"
         width="1680"
         height="420"
         x="0"
         y="420"
         inkscape:label="green band" /><rect
         style="opacity:1;fill:#081933;fill-opacity:1;stroke-width:22.4157;paint-order:stroke fill markers"
         id="rect679"
         width="1680"
         height="420"
         x="0"
         y="0"
         inkscape:label="blue band" /></g><g
       id="layer3"
       inkscape:label="Hoist"><path
         id="rect7987"
         style="opacity:1;fill:#f50000;fill-opacity:1;stroke-width:58.5774;paint-order:stroke fill markers"
         d="M 0,0 H 321.36623 L 260.78183,129.9462 324.95024,276.28964 257.49289,415.98521 324.61324,557.0013 258.65567,697.93182 319.97465,840 H 0 Z"
         sodipodi:nodetypes="cccccccccc"
         inkscape:label="hoist fill" /></g><g
       id="layer2"
       inkscape:label="Stars"><path
         id="path19494-6-2-1"
         style="fill:#ffffff;stroke-width:15.8699;paint-order:stroke fill markers"
         inkscape:label="star 6"
         inkscape:transform-center-y="-6.9098182"
         d="m 122.50017,647.63933 15.45108,50.00035 49.9996,-4e-4 -40.45064,30.90169 15.4509,50.00006 -40.45094,-30.90177 -40.450959,30.90169 15.450901,-49.99998 -40.450959,-30.90169 h 50.000137 z"
         sodipodi:nodetypes="ccccccccccc" /><path
         id="path19494-6-6"
         style="fill:#ffffff;stroke-width:15.8699;paint-order:stroke fill markers"
         inkscape:label="star 5"
         inkscape:transform-center-y="-6.9098209"
         d="m 122.50017,527.63933 15.45108,50.00038 49.9996,-4e-4 -40.45064,30.90171 15.4509,50.00001 -40.45094,-30.90171 -40.450959,30.90171 15.450901,-50.00001 -40.450959,-30.90171 h 50.000137 z"
         sodipodi:nodetypes="ccccccccccc" /><path
         id="path19494-8"
         style="fill:#ffffff;stroke-width:15.8699;paint-order:stroke fill markers"
         inkscape:label="star 4"
         inkscape:transform-center-y="-6.9098209"
         d="m 122.50017,407.63933 15.45107,50.00038 49.9996,-4e-4 -40.45063,30.90171 15.4509,50.00001 -40.45094,-30.90171 -40.450967,30.90171 15.4509,-50.00001 -40.450956,-30.90171 h 50.000143 z"
         sodipodi:nodetypes="ccccccccccc"
         inkscape:transform-center-x="2.5e-06" /><path
         id="path19494-6-2"
         style="fill:#ffffff;stroke-width:15.8699;paint-order:stroke fill markers"
         inkscape:label="star 3"
         inkscape:transform-center-y="-6.9098223"
         d="m 122.50017,287.63933 15.45108,50.00038 49.9996,-4e-4 -40.45064,30.90171 15.4509,50.00001 -40.45094,-30.90171 -40.450959,30.90171 15.450902,-50.00001 -40.45096,-30.90171 h 50.000137 z"
         sodipodi:nodetypes="ccccccccccc" /><path
         id="path19494-6"
         style="fill:#ffffff;stroke-width:15.8699;paint-order:stroke fill markers"
         inkscape:label="star 2"
         inkscape:transform-center-y="-6.9098209"
         d="m 122.50017,167.63933 15.45108,50.00038 49.9996,-4e-4 -40.45064,30.90171 15.4509,50.00001 -40.45094,-30.90171 -40.450958,30.90171 15.450901,-50.00001 -40.45096,-30.90171 h 50.000137 z"
         sodipodi:nodetypes="ccccccccccc" /><path
         id="path19494"
         style="opacity:1;fill:#ffffff;stroke-width:15.87;paint-order:stroke fill markers"
         inkscape:label="star 1"
         inkscape:transform-center-y="-6.9097995"
         d="m 122.50018,47.639351 15.45107,50.00065 49.9996,-4e-4 -40.45063,30.901609 15.4509,49.99984 L 122.50018,147.63944 82.04921,178.54105 97.500108,128.54121 57.049153,97.6396 h 50.000137 z"
         sodipodi:nodetypes="ccccccccccc"
         inkscape:transform-center-x="2.2185001e-06" /></g><g
       id="layer4"
       inkscape:label="Wave"><path
         style="fill:none;stroke:#ffffff;stroke-width:32;stroke-dasharray:none;stroke-opacity:1;paint-order:stroke fill markers"
         d="m 331,0 c 0,52.174919 -70,87.825081 -70,140 0,52.17492 70,87.82508 70,140 0,52.17492 -70,87.82508 -70,140 0,52.17492 70,87.82508 70,140 0,52.17492 -70,87.82508 -70,140 0,52.17492 70,87.82508 70,140"
         id="path7230"
         sodipodi:nodetypes="caaaaac" /></g></g></svg>
